# xmcd
#
# Track frame offsets:
#	150
#	10200
#	21075
#	32390
#	44700
#	54598
#	66073
#	76650
#	94200
#	105750
#	118050
#	128175
#	138673
#	147225
#	159525
#	171300
#	180450
#	190498
#	204375
#	214873
#	227623
#	237750
#	249525
#
# Disc length: 3472
#
# Revision: 1
# Processed by: cddbd v1.5.1PL0 Copyright (c) Steve Scherf et al.
# Submitted via: EasyCDDAExtractor 8.0.1.1
# Normalized: r0:DSETVAR1
#
DISCID=3a0d8e17
DTITLE=Various Artist - A Musical Anthology Disc 3
DYEAR=1992
DGENRE=Acid Jazz
TTITLE0=Curt Ramsey Quintet - Let's Go Dance Again
TTITLE1=Johnny Zell and Girl'sChorus - Can't Help Lovin' That Man Of Mine
TTITLE2=Bob Smale - String Of Pearls
TTITLE3=Joe Feeney - Galway Bay
TTITLE4=Lawrence Welk, Myron Floren. Joey Schmidt - Helena Polka
TTITLE5=Ava Barber - When My Blue Moon Turns To Gold Again
TTITLE6=Lawrence Welk Orchestra - Over The Waves
TTITLE7=The Lennon Sisters - In This Very Room
TTITLE8=Lawrence Welk Orchestra - Blue Velvet
TTITLE9=Sandi and Salli, Peanuts Hucko - You Can Dance With Any Girl At All
TTITLE10=Lawrence Welk Orchestra - Baby Elephant Walk
TTITLE11=Jim Roberts - I Left My Heart In San Francisco
TTITLE12=Pete Fountain - Thou Swell
TTITLE13=Anacani - Vaya Con Dios
TTITLE14=Henry Cuesta - La Mer
TTITLE15=Guy and Ralna, Buddy Merrill - You Are My Sunshine
TTITLE16=Bob Ralston - Try To Remember
TTITLE17=Norma Zimmer and Chorus - Battle Hymn Of The Republic
TTITLE18=Lawrence Welk Orchestra - Rustic Dance
TTITLE19=Girl's Chorus - Too Many Rings Around Rosy
TTITLE20=Lawrence Welk Orchestra - Pennsylvania Polka
TTITLE21=The Lennon Sisters - Now Is The Hour
TTITLE22=Lawrence Welk Orchestra and Chorus - Adios, Au Revoir, Auf Weidersehn
EXTD=
EXTT0=
EXTT1=
EXTT2=
EXTT3=
EXTT4=
EXTT5=
EXTT6=
EXTT7=
EXTT8=
EXTT9=
EXTT10=
EXTT11=
EXTT12=
EXTT13=
EXTT14=
EXTT15=
EXTT16=
EXTT17=
EXTT18=
EXTT19=
EXTT20=
EXTT21=
EXTT22=
PLAYORDER=
